<svg width="277" height="44" viewBox="0 0 277 44" fill="none" xmlns="http://www.w3.org/2000/svg">
<path d="M242.641 30.7778C242.641 30.2869 242.311 29.9596 241.817 29.9596H227.473C226.978 29.9596 226.649 30.2869 226.649 30.7778C226.649 31.2687 226.978 31.596 227.473 31.596H241.817C242.311 31.596 242.641 31.1869 242.641 30.7778Z" fill="white"/>
<path d="M230.77 34.0505H229.122C228.627 34.0505 228.297 34.3778 228.297 34.8687C228.297 35.3596 228.627 35.6869 229.122 35.6869H230.77C231.265 35.6869 231.595 35.3596 231.595 34.8687C231.595 34.3778 231.265 34.0505 230.77 34.0505Z" fill="white"/>
<path d="M234.645 26.687C234.645 26.196 234.315 25.8688 233.821 25.8688H225.824C225.33 25.8688 225 26.196 225 26.687C225 27.1779 225.33 27.5051 225.824 27.5051H233.821C234.315 27.5051 234.645 27.096 234.645 26.687Z" fill="white"/>
<path d="M275.615 28.0778C275.368 27.5869 274.873 27.1778 274.379 26.9324L268.113 24.5596L265.558 23.6596C264.816 23.3324 264.157 22.8414 263.744 22.1869L261.601 18.6687C262.013 18.5869 262.261 18.2596 262.261 17.8505C262.261 17.3596 261.931 17.0324 261.436 17.0324H260.612L259.623 15.396C260.035 15.3142 260.282 14.9869 260.282 14.5778C260.282 14.0869 259.952 13.7596 259.458 13.7596H258.633L257.809 12.4505C258.139 12.3687 258.386 12.0414 258.386 11.7142C258.386 11.2233 258.056 10.896 257.562 10.896H256.82L255.748 9.17781C255.748 9.17781 255.748 9.09599 255.666 9.09599C254.677 7.95054 253.358 7.37781 251.956 7.54145C250.72 7.70508 249.73 8.44145 249.318 9.34145C249.236 9.5869 249.236 9.83236 249.401 10.0778L256.243 21.696C256.325 21.8596 256.49 22.0233 256.655 22.0233L265.063 25.2142H265.146L267.619 26.1142L273.801 28.4869C273.966 28.5687 274.131 28.6505 274.214 28.896C274.543 29.5505 274.543 30.2051 274.131 30.8596H260.694C259.87 30.8596 259.046 30.6142 258.386 30.1233L235.387 13.1869C235.387 13.1869 235.717 13.0233 236.129 12.4505C236.541 11.8778 236.706 11.1414 236.706 10.4051L235.964 3.53236L236.953 1.97781C237.2 1.65054 237.695 1.56872 238.025 1.81417C238.272 2.05963 239.261 2.87781 241.652 6.72327C242.888 8.52327 244.867 9.83236 247.093 10.1596C247.505 10.2414 247.999 9.91417 248.082 9.50508C248.164 9.09599 247.834 8.60508 247.422 8.52327C245.691 8.19599 244.042 7.21417 243.053 5.74145C240.168 1.32327 239.344 0.66872 239.014 0.423266C237.942 -0.313098 236.458 -0.0676435 235.634 0.995993L230.606 8.93236C230.276 9.42327 230.193 9.99599 230.276 10.5687C229.781 10.7324 229.287 10.9778 229.039 11.4687L227.72 13.5142C226.978 14.5778 227.308 16.0505 228.38 16.7869C229.122 17.3596 230.688 18.3414 232.996 19.8142C233.161 19.896 233.326 19.9778 233.408 19.9778C233.656 19.9778 233.903 19.8142 234.068 19.5687C234.315 19.1596 234.233 18.6687 233.821 18.4233C231.595 16.9505 230.028 15.9687 229.287 15.396C228.957 15.1505 228.874 14.7414 229.122 14.3324L230.358 12.4505C230.606 12.1233 231.1 12.0414 231.43 12.2869L257.314 31.4324C258.304 32.1687 259.458 32.496 260.612 32.496H271.988C270.257 33.3142 267.866 34.0505 265.805 34.0505H262.92H260.529C259.128 34.0505 257.727 33.6415 256.573 32.9051C251.791 29.8778 242.888 24.2324 236.376 20.0596C235.964 19.8142 235.469 19.896 235.222 20.3051C234.975 20.7142 235.057 21.2051 235.469 21.4505C241.817 25.5414 250.472 31.0233 255.336 34.1324H234.068C233.573 34.1324 233.243 34.4596 233.243 34.9505C233.243 35.4414 233.573 35.7687 234.068 35.7687H260.529H262.92H265.723C269.103 35.7687 273.966 33.9687 275.203 32.2505C276.275 30.7778 276.357 29.3869 275.615 28.0778ZM257.397 20.7142L250.967 9.83236C251.214 9.5869 251.626 9.34145 252.121 9.25963C252.616 9.17781 253.522 9.25963 254.347 10.1596L254.841 10.9778H254.1C253.605 10.9778 253.275 11.3051 253.275 11.796C253.275 12.2869 253.605 12.6142 254.1 12.6142H255.831L256.655 13.9233H255.996C255.501 13.9233 255.171 14.2505 255.171 14.7414C255.171 15.2324 255.501 15.5596 255.996 15.5596H257.644L258.633 17.1142H257.974C257.479 17.1142 257.15 17.4414 257.15 17.9324C257.15 18.4233 257.479 18.7505 257.974 18.7505H259.623L261.931 22.3505L257.397 20.7142ZM232.007 9.83236L234.562 5.82327L235.057 10.5687C235.057 10.896 234.975 11.2233 234.81 11.4687C234.645 11.7142 234.315 12.3687 233.573 11.796C233.573 11.796 233.161 11.5505 232.419 10.9778C231.925 10.5687 231.842 10.1596 232.007 9.83236Z" fill="white"/>
<path d="M13.4531 29.9531C13.4531 29.151 13.1667 28.526 12.5938 28.0781C12.0312 27.6302 11.0365 27.1667 9.60938 26.6875C8.18229 26.2083 7.01562 25.7448 6.10938 25.2969C3.16146 23.849 1.6875 21.8594 1.6875 19.3281C1.6875 18.0677 2.05208 16.9583 2.78125 16C3.52083 15.0312 4.5625 14.2812 5.90625 13.75C7.25 13.2083 8.76042 12.9375 10.4375 12.9375C12.0729 12.9375 13.5365 13.2292 14.8281 13.8125C16.1302 14.3958 17.1406 15.2292 17.8594 16.3125C18.5781 17.3854 18.9375 18.6146 18.9375 20H13.4688C13.4688 19.0729 13.1823 18.3542 12.6094 17.8438C12.0469 17.3333 11.2812 17.0781 10.3125 17.0781C9.33333 17.0781 8.55729 17.2969 7.98438 17.7344C7.42188 18.1615 7.14062 18.7083 7.14062 19.375C7.14062 19.9583 7.45312 20.4896 8.07812 20.9688C8.70312 21.4375 9.80208 21.9271 11.375 22.4375C12.9479 22.9375 14.2396 23.4792 15.25 24.0625C17.7083 25.4792 18.9375 27.4323 18.9375 29.9219C18.9375 31.9115 18.1875 33.474 16.6875 34.6094C15.1875 35.7448 13.1302 36.3125 10.5156 36.3125C8.67188 36.3125 7 35.9844 5.5 35.3281C4.01042 34.6615 2.88542 33.7552 2.125 32.6094C1.375 31.4531 1 30.125 1 28.625H6.5C6.5 29.8438 6.8125 30.7448 7.4375 31.3281C8.07292 31.901 9.09896 32.1875 10.5156 32.1875C11.4219 32.1875 12.1354 31.9948 12.6562 31.6094C13.1875 31.2135 13.4531 30.6615 13.4531 29.9531ZM39.6094 17.4844H32.7812V36H27.2969V17.4844H20.5938V13.25H39.6094V17.4844ZM60.7656 25.0938C60.7656 27.3125 60.3542 29.276 59.5312 30.9844C58.7083 32.6927 57.5365 34.0104 56.0156 34.9375C54.5052 35.8542 52.7812 36.3125 50.8438 36.3125C48.9062 36.3125 47.1875 35.8698 45.6875 34.9844C44.1875 34.0885 43.0156 32.8125 42.1719 31.1562C41.3385 29.5 40.901 27.599 40.8594 25.4531V24.1719C40.8594 21.9427 41.2656 19.9792 42.0781 18.2812C42.901 16.5729 44.0729 15.2552 45.5938 14.3281C47.125 13.401 48.8646 12.9375 50.8125 12.9375C52.7396 12.9375 54.4583 13.3958 55.9688 14.3125C57.4792 15.2292 58.651 16.5365 59.4844 18.2344C60.3281 19.9219 60.7552 21.8594 60.7656 24.0469V25.0938ZM55.1875 24.1406C55.1875 21.8802 54.8073 20.1667 54.0469 19C53.2969 17.8229 52.2188 17.2344 50.8125 17.2344C48.0625 17.2344 46.6094 19.2969 46.4531 23.4219L46.4375 25.0938C46.4375 27.3229 46.8073 29.0365 47.5469 30.2344C48.2865 31.4323 49.3854 32.0312 50.8438 32.0312C52.2292 32.0312 53.2969 31.4427 54.0469 30.2656C54.7969 29.0885 55.1771 27.3958 55.1875 25.1875V24.1406ZM82 28.2969C81.9271 29.8802 81.5 31.2812 80.7188 32.5C79.9375 33.7083 78.8385 34.6458 77.4219 35.3125C76.0156 35.9792 74.4062 36.3125 72.5938 36.3125C69.6042 36.3125 67.25 35.3385 65.5312 33.3906C63.8125 31.4427 62.9531 28.6927 62.9531 25.1406V24.0156C62.9531 21.7865 63.3385 19.8385 64.1094 18.1719C64.8906 16.4948 66.0104 15.2031 67.4688 14.2969C68.9271 13.3802 70.6146 12.9219 72.5312 12.9219C75.2917 12.9219 77.5104 13.651 79.1875 15.1094C80.8646 16.5573 81.8177 18.5573 82.0469 21.1094H76.5781C76.5365 19.724 76.1875 18.7292 75.5312 18.125C74.875 17.5208 73.875 17.2188 72.5312 17.2188C71.1667 17.2188 70.1667 17.7292 69.5312 18.75C68.8958 19.7708 68.5625 21.401 68.5312 23.6406V25.25C68.5312 27.6771 68.8333 29.4115 69.4375 30.4531C70.0521 31.4948 71.1042 32.0156 72.5938 32.0156C73.8542 32.0156 74.8177 31.7188 75.4844 31.125C76.151 30.5312 76.5052 29.5885 76.5469 28.2969H82ZM92.3281 27.5312L90.0781 30V36H84.5938V13.25H90.0781V23.2812L91.9844 20.3906L96.8906 13.25H103.672L95.9844 23.3125L103.672 36H97.1719L92.3281 27.5312ZM116.797 29.9531C116.797 29.151 116.51 28.526 115.938 28.0781C115.375 27.6302 114.38 27.1667 112.953 26.6875C111.526 26.2083 110.359 25.7448 109.453 25.2969C106.505 23.849 105.031 21.8594 105.031 19.3281C105.031 18.0677 105.396 16.9583 106.125 16C106.865 15.0312 107.906 14.2812 109.25 13.75C110.594 13.2083 112.104 12.9375 113.781 12.9375C115.417 12.9375 116.88 13.2292 118.172 13.8125C119.474 14.3958 120.484 15.2292 121.203 16.3125C121.922 17.3854 122.281 18.6146 122.281 20H116.812C116.812 19.0729 116.526 18.3542 115.953 17.8438C115.391 17.3333 114.625 17.0781 113.656 17.0781C112.677 17.0781 111.901 17.2969 111.328 17.7344C110.766 18.1615 110.484 18.7083 110.484 19.375C110.484 19.9583 110.797 20.4896 111.422 20.9688C112.047 21.4375 113.146 21.9271 114.719 22.4375C116.292 22.9375 117.583 23.4792 118.594 24.0625C121.052 25.4792 122.281 27.4323 122.281 29.9219C122.281 31.9115 121.531 33.474 120.031 34.6094C118.531 35.7448 116.474 36.3125 113.859 36.3125C112.016 36.3125 110.344 35.9844 108.844 35.3281C107.354 34.6615 106.229 33.7552 105.469 32.6094C104.719 31.4531 104.344 30.125 104.344 28.625H109.844C109.844 29.8438 110.156 30.7448 110.781 31.3281C111.417 31.901 112.443 32.1875 113.859 32.1875C114.766 32.1875 115.479 31.9948 116 31.6094C116.531 31.2135 116.797 30.6615 116.797 29.9531ZM144.109 36H138.656V26.5H130.578V36H125.094V13.25H130.578V22.2812H138.656V13.25H144.109V36ZM166.859 25.0938C166.859 27.3125 166.448 29.276 165.625 30.9844C164.802 32.6927 163.63 34.0104 162.109 34.9375C160.599 35.8542 158.875 36.3125 156.938 36.3125C155 36.3125 153.281 35.8698 151.781 34.9844C150.281 34.0885 149.109 32.8125 148.266 31.1562C147.432 29.5 146.995 27.599 146.953 25.4531V24.1719C146.953 21.9427 147.359 19.9792 148.172 18.2812C148.995 16.5729 150.167 15.2552 151.688 14.3281C153.219 13.401 154.958 12.9375 156.906 12.9375C158.833 12.9375 160.552 13.3958 162.062 14.3125C163.573 15.2292 164.745 16.5365 165.578 18.2344C166.422 19.9219 166.849 21.8594 166.859 24.0469V25.0938ZM161.281 24.1406C161.281 21.8802 160.901 20.1667 160.141 19C159.391 17.8229 158.312 17.2344 156.906 17.2344C154.156 17.2344 152.703 19.2969 152.547 23.4219L152.531 25.0938C152.531 27.3229 152.901 29.0365 153.641 30.2344C154.38 31.4323 155.479 32.0312 156.938 32.0312C158.323 32.0312 159.391 31.4427 160.141 30.2656C160.891 29.0885 161.271 27.3958 161.281 25.1875V24.1406ZM183.797 26.3594H175.172V31.7812H185.359V36H169.688V13.25H185.391V17.4844H175.172V22.2812H183.797V26.3594ZM199.328 29.9531C199.328 29.151 199.042 28.526 198.469 28.0781C197.906 27.6302 196.911 27.1667 195.484 26.6875C194.057 26.2083 192.891 25.7448 191.984 25.2969C189.036 23.849 187.562 21.8594 187.562 19.3281C187.562 18.0677 187.927 16.9583 188.656 16C189.396 15.0312 190.438 14.2812 191.781 13.75C193.125 13.2083 194.635 12.9375 196.312 12.9375C197.948 12.9375 199.411 13.2292 200.703 13.8125C202.005 14.3958 203.016 15.2292 203.734 16.3125C204.453 17.3854 204.812 18.6146 204.812 20H199.344C199.344 19.0729 199.057 18.3542 198.484 17.8438C197.922 17.3333 197.156 17.0781 196.188 17.0781C195.208 17.0781 194.432 17.2969 193.859 17.7344C193.297 18.1615 193.016 18.7083 193.016 19.375C193.016 19.9583 193.328 20.4896 193.953 20.9688C194.578 21.4375 195.677 21.9271 197.25 22.4375C198.823 22.9375 200.115 23.4792 201.125 24.0625C203.583 25.4792 204.812 27.4323 204.812 29.9219C204.812 31.9115 204.062 33.474 202.562 34.6094C201.062 35.7448 199.005 36.3125 196.391 36.3125C194.547 36.3125 192.875 35.9844 191.375 35.3281C189.885 34.6615 188.76 33.7552 188 32.6094C187.25 31.4531 186.875 30.125 186.875 28.625H192.375C192.375 29.8438 192.688 30.7448 193.312 31.3281C193.948 31.901 194.974 32.1875 196.391 32.1875C197.297 32.1875 198.01 31.9948 198.531 31.6094C199.062 31.2135 199.328 30.6615 199.328 29.9531Z" fill="white"/>
</svg>
